<?xml version="1.0" encoding="UTF-8"?>
<svg version="1.1" viewBox="0 0 2000 2000" width="1280" height="1280" xmlns="http://www.w3.org/2000/svg">
<path transform="translate(1014,424)" d="m0 0h44l23 2 31 6 16 5 20 8 16 9 14 12 9 13 3 6v2l11 3 15 5 16 8 11 6 17 12 16 13 14 12 19 19 7 8 10 12 14 19 11 18 10 19 8 22 4 18 2 14v21l-5 24-8 22-8 17-13 23-14 21-9 12-10 13-6 8h-2l-1-5-1-37-3-52-3-28-5-30-5-20-7-19-8-14-9-10-6-5-12-5-10-2-7 1-7-15-4-8-9-10-10-7-10-3h-9l-11 4-9 7-10 9-8 9-13 17-12 17-34 51-16 25-14 19-11 14-10 11-7 8-13 11-17 13-18 13-24 16-18 11-20 12-18 10-4 3 1 15 5 22 6 16 8 16 8 12 11 12 15 15 10 13 9 15 5 11 4 13 3 18v17l-2 15-5 16v2l6 2 9 7 9 9 7 10 8 15 7 21 3 19v14l-3 20-6 21-7 16-9 16-11 16-11 13-16 17-7 8-10 16-5 15-1 4v17l2 9 4 10 9 12 9 8 14 8 12 4 7 1 29 2-2 4-8 7-12 9-15 7-11 3-10 1h-16l-10-2 6 7 10 7 12 6 20 4 22 1-1 4-11 12-14 14-22 18-19 13-17 9-19 7-18 4-13 1-16-2-16-5-15-8-10-8-8-8-10-14-7-16-4-16-2-14v-23l3-21 2-5h-17l-22-4-12-4-13-8-7-6-9-13-7-16-3-14-1-16 2-16 6-21 8-18 3-4-3 1h-35l-25-4-19-7-13-7-11-9-8-9-8-14-5-12-3-15v-27l5-25 8-23 4-8v-5l-4-2-13-13-11-14-10-14-13-25-7-19-5-22-2-19v-15l3-23 6-22 7-20 7-16 9-17 14-21 13-17 6-7h2l2-4 28-28 8-7 29-29 11-14 12-18 8-16 10-26 15-37 9-20 16-33 13-23 9-14 12-17 10-13 9-11 14-15 8-8 11-9 8-7 17-12 21-12 25-12 24-8 25-6 31-5z" fill="#B79A7C"/>
<path transform="translate(1215,813)" d="m0 0h17l8 4 4 5 3 8-2 11-5 12-7 11-9 9-5 2h-5v-4l11-7 8-11 6-13 1-5v-7l-4-6-7-3h-11l-13 4-13 9-12 11-9 11-9 16-5 12-2 9v15l3 6 2 2 10 1 26-5 17-1 6 3 4 4 2 7v9l16-8 17-9 7-2 2 1-2 4-18 10-21 11-3 1-2 4-9 14-9 12-9 9-7 4-9 1-5-5v-7l4-7 8-7 12-9 16-10 4-5 1-4v-8l-3-5-2-1h-14l-27 5h-11l-7-4-5-8-2-12-9 1-3 3-7 29-10 47-4 13-5 1-1-3 7-28 9-43 4-18-40 4-3 1-8 37-3 17-1 13-2 4-5-1 1-16 6-31 5-22-8 2h-6l1-4 7-3 6-1 4-11 8-28 4-11 3-3h3l-1 8-9 30-3 12 43-3 3-11 9-29 8-24 4-7 4-1 1 3-9 24-6 19-7 25 11-1 2-10 8-18 8-12 9-11 6-7 14-11 16-8zm-10 138-12 7-13 12-2 5 2 3 7-1 10-9 8-9 3-5v-3z" fill="#6E6764"/>
<path transform="translate(990,641)" d="m0 0 3 3-7 24-9 21-11 21-12 18-11 14-10 11-7 8-15 15-14 11-13 10-15 10-19 11-16 8-21 9-12 4h-6l2-4 17-10 18-11 24-16 13-10 14-11 10-9 5-4h2l2-4h2l2-4 8-7 4-5h2l2-4h2l2-4 7-7 13-17 9-12 10-16 9-15 8-17 6-10z" fill="#524D4E"/>
<path transform="translate(853,1134)" d="m0 0 7 1 18 11 8 6 10 9 9 10 10 18 5 13 3 15v15l-4 17-7 14-6 7-6 1-2-1 1-9 6-21 2-12v-13l-4-17-8-17-7-10-8-10-16-16-9-7z" fill="#524D4E"/>
<path transform="translate(1153,906)" d="m0 0h2l3 6 2 2 10 1 26-5 17-1 6 3 4 4 2 7v9l16-8 17-9 7-2 2 1-2 4-18 10-21 11-3 1-2 4-9 14-9 12-9 9-7 4-9 1-5-5v-7l4-7 8-7 12-9 16-10 4-5 1-4v-8l-3-5-2-1h-14l-27 5h-11l-7-4-2-2v-7zm52 45-12 7-13 12-2 5 2 3 7-1 10-9 8-9 3-5v-3z" fill="#68615F"/>
<path transform="translate(774,864)" d="m0 0 15 1 23 2 50 1 3 2-2 4-5 4-7 4-13 3h-36l-16-4-12-6-3-5 1-4z" fill="#524D4E"/>
<path transform="translate(838,1427)" d="m0 0 4 2 1 20 3 17 5 10 6 7 10 6 12 4 12 3 16 2v4l-7 4-8 2h-14l-12-3-11-6-10-9-7-10-4-11-1-4v-25l4-12z" fill="#524D4E"/>
<path transform="translate(1093,836)" d="m0 0 4 1-2 4-18 4-20 3v13l-4 23-5 21-7 22-6 15-9 15-8 10-7 6-6 2-7-1-5-4-4-8 3-7 4-3 4 1-3 6v6l5 3 6-1 8-7 8-11 8-16 7-20 8-29 5-27v-7l-30 4-17 2v-4l6-2 43-7z" fill="#726B67"/>
<path transform="translate(949,1168)" d="m0 0 4 1 4 4 7 11 4 10 2 12v16l-3 16-5 12-5 8-2 1h-6l-1-2v-9l5-23 1-6v-19l-5-25z" fill="#524D4E"/>
<path transform="translate(1197,507)" d="m0 0 4 2 7 10 6 10 8 16 8 20 4 13 4 16v10l-3 3-5-1-4-8-16-56-7-20-6-12z" fill="#524D4E"/>
<path transform="translate(1011,850)" d="m0 0h7l-2 5-11 1v-4z" fill="#6C635D"/>
<path transform="translate(1152,896)" d="m0 0h2v10l-2 7-2-2 1-10z" fill="#D2C1AE"/>
</svg>
